<?xml version="1.0" encoding="UTF-8"?>
<svg width="1024px" height="1024px" viewBox="0 0 1024 1024" version="1.1" xmlns="http://www.w3.org/2000/svg" xmlns:xlink="http://www.w3.org/1999/xlink">
    <!-- Generator: Sketch 49.3 (51167) - http://www.bohemiancoding.com/sketch -->
    <title>lianmilogo</title>
    <desc>Created with Sketch.</desc>
    <defs></defs>
    <g id="Page-1" stroke="none" stroke-width="1" fill="none" fill-rule="evenodd">
        <g id="lianmilogo" transform="translate(36.000000, 223.000000)" fill="#20A0FF" fill-rule="nonzero">
            <path d="M227.620533,398.154669 L455.301036,520.284877 C456.780225,521.070068 457.954371,522.197705 458.765677,523.539116 C459.576983,524.880527 460.027589,526.413423 459.99869,527.996977 L457.997184,777.303894 C457.976847,779.640218 456.983586,781.871176 455.217551,783.505387 C453.451515,785.139599 451.078606,786.038263 448.606156,785.99875 L9.11378131,779.092104 C5.85892443,779.038407 2.86629706,777.366709 1.24154444,774.695032 C-0.383208192,772.023354 -0.417458577,768.728589 1.16341075,766.047794 L214.970367,401.501105 C216.172342,399.459607 218.167427,397.956092 220.556391,397.325912 C222.920738,396.696746 225.46704,396.984481 227.6109,398.137446 L227.620533,398.154669 Z M433.153881,528.546105 L234.216943,421.838072 L254.196691,626.340441 L433.156022,528.532934 L433.153881,528.546105 Z M439.637907,760.096548 L441.378255,544.325921 L263.519218,641.531617 L439.644329,760.096548 L439.637907,760.096548 Z M245.88348,651.165664 L42.8932233,762.105626 L419.439813,768.013305 L245.88241,651.170729 L245.88348,651.165664 Z M236.538477,635.995764 L216.843435,434.454833 L33.5985251,746.909384 L236.536336,635.999816 L236.538477,635.995764 Z" id="Shape"></path>
            <path d="M243.548612,373.362569 L469.028969,498.7878 C470.48395,499.598294 472.109036,500 473.730912,500 C475.352788,500 476.977873,499.594247 478.431785,498.7878 L705.423824,372.651237 C707.556013,371.469392 709.088023,369.531694 709.708529,367.274251 C710.329036,365.016807 709.943894,362.623775 708.695392,360.618283 L482.736817,4.24877009 C481.05503,1.60985788 478.035944,0 474.784703,0 C471.533462,0 468.502608,1.6179527 466.832589,4.24877009 L240.314489,361.342769 C239.04245,363.343202 238.678705,365.73927 239.288513,367.998737 C239.885483,370.243027 241.43247,372.193879 243.56466,373.375723 L243.548612,373.362569 Z M465.501709,476.521978 L268.502609,366.936292 L465.501709,281.170633 L465.501709,476.521978 Z M484.032392,281.214142 L680.490154,366.20371 L484.032392,475.376561 L484.032392,281.216166 L484.032392,281.214142 Z M484.032392,261.971737 L484.032392,40.383047 L677.627265,345.714702 L484.032392,261.971737 Z M465.501709,261.901919 L271.35587,346.418952 L465.501709,40.3607863 L465.501709,261.895848 L465.501709,261.901919 Z" id="Shape"></path>
            <path d="M724.379467,398.154669 L496.698964,520.284877 C495.219775,521.070068 494.045629,522.197705 493.234323,523.539116 C492.423017,524.880527 491.972411,526.413423 492.00131,527.996977 L494.002816,777.303894 C494.023153,779.640218 495.016414,781.871176 496.782449,783.505387 C498.548485,785.139599 500.921394,786.038263 503.393844,785.99875 L942.886219,779.092104 C946.141076,779.038407 949.133703,777.366709 950.758456,774.695032 C952.383208,772.023354 952.417459,768.728589 950.836589,766.047794 L737.029633,401.501105 C735.827658,399.459607 733.832573,397.956092 731.443609,397.325912 C729.079262,396.696746 726.53296,396.984481 724.3891,398.137446 L724.379467,398.154669 Z M518.845049,528.541039 L717.781987,421.833006 L697.802239,626.335375 L518.842908,528.527868 L518.845049,528.541039 Z M688.495767,641.517433 L512.370656,760.082364 L510.630308,544.311737 L688.489345,641.517433 L688.495767,641.517433 Z M706.115449,651.157558 L909.105706,762.09752 L532.559117,768.0052 L706.11652,651.162624 L706.115449,651.157558 Z M715.460453,635.995764 L735.155494,434.454833 L918.400405,746.909384 L715.462593,635.999816 L715.460453,635.995764 Z" id="Shape"></path>
        </g>
    </g>
</svg>